<svg xmlns="http://www.w3.org/2000/svg" xmlns:svg="http://www.w3.org/2000/svg" id="svg1" width="128" height="128" version="1.1"><metadata id="metadata3"/><g id="layer1-7" transform="matrix(0.19736397,0,0,0.19736397,-10.012422,-41.068902)"><g id="g8664" transform="translate(117.37,-147.44)"><g id="g8642" transform="matrix(0.98481,-0.17365,0.17365,0.98481,-204.71,-19.959)"><rect id="rect8644" width="386.89" height="531.34" x="71.721" y="467.48" style="fill:#f9f9f9;stroke:#000;stroke-width:8"/><g id="g8646" transform="translate(0,15.464)"><rect id="rect8648" width="273.75" height="29.294" x="110.11" y="523.04"/><rect id="rect8650" width="236.38" height="29.294" x="110.11" y="569.04"/><rect id="rect8652" width="266.68" height="29.294" x="110.11" y="615.04"/><rect id="rect8654" width="201.02" height="29.294" x="110.11" y="661.04"/><rect id="rect8656" width="269.71" height="29.294" x="110.11" y="735.04"/><rect id="rect8658" width="253.55" height="29.294" x="110.11" y="785.04"/><rect id="rect8660" width="279.81" height="29.294" x="110.11" y="833.04"/><rect id="rect8662" width="173.75" height="29.294" x="110.11" y="883.04"/></g></g><g id="g8620" transform="matrix(0.99619,0.087156,-0.087156,0.99619,152.05,-43.178)"><rect id="rect8622" width="386.89" height="531.34" x="71.721" y="467.48" style="fill:#f9f9f9;stroke:#000;stroke-width:8"/><g id="g8624" transform="translate(0,15.464)"><rect id="rect8626" width="273.75" height="29.294" x="110.11" y="523.04"/><rect id="rect8628" width="236.38" height="29.294" x="110.11" y="569.04"/><rect id="rect8630" width="266.68" height="29.294" x="110.11" y="615.04"/><rect id="rect8632" width="201.02" height="29.294" x="110.11" y="661.04"/><rect id="rect8634" width="269.71" height="29.294" x="110.11" y="735.04"/><rect id="rect8636" width="253.55" height="29.294" x="110.11" y="785.04"/><rect id="rect8638" width="279.81" height="29.294" x="110.11" y="833.04"/><rect id="rect8640" width="173.75" height="29.294" x="110.11" y="883.04"/></g></g><g id="g8608"><rect id="rect8580" width="386.89" height="531.34" x="71.721" y="467.48" style="fill:#f9f9f9;stroke:#000;stroke-width:8"/><g id="g8598" transform="translate(0,15.464)"><rect id="rect8582" width="273.75" height="29.294" x="110.11" y="523.04"/><rect id="rect8584" width="236.38" height="29.294" x="110.11" y="569.04"/><rect id="rect8586" width="266.68" height="29.294" x="110.11" y="615.04"/><rect id="rect8588" width="201.02" height="29.294" x="110.11" y="661.04"/><rect id="rect8590" width="269.71" height="29.294" x="110.11" y="735.04"/><rect id="rect8592" width="253.55" height="29.294" x="110.11" y="785.04"/><rect id="rect8594" width="279.81" height="29.294" x="110.11" y="833.04"/><rect id="rect8596" width="173.75" height="29.294" x="110.11" y="883.04"/></g></g></g></g></svg>