<svg xmlns="http://www.w3.org/2000/svg" xmlns:svg="http://www.w3.org/2000/svg" id="svg2" width="128" height="128" version="1.1"><metadata id="metadata8"/><g id="g3003" transform="translate(-0.07356158,0)"><g id="g2998" transform="translate(0,-3.31149)"><rect style="color:#000;fill:#0060b2;fill-opacity:1;fill-rule:evenodd;stroke:none;stroke-width:.51812077;marker:none;visibility:visible;display:inline;overflow:visible;enable-background:accumulate" id="rect2998" width="51.523" height="118.805" x="13.911" y="3.852" ry="0" transform="matrix(1,0,0.51069126,0.85976417,0,0)"/><path style="fill:#ffd715;fill-opacity:1;stroke:none" id="path3000" d="M 8.3819299,96.350865 C 15.28056,97.754835 21.012791,96.867186 27.616708,95.369146 62.09419,84.971119 95.837094,59.943837 111.39019,30.987651 c 3.18661,-6.108384 5.44624,-13.663422 7.03447,-20.85088 l 6.46605,10.776762 C 125.69568,40.01481 102.39016,63.273776 86.603152,76.12262 73.967981,86.300307 59.506348,95.700246 46.777865,100.17543 c -9.415431,3.18415 -23.576115,5.76306 -32.88781,5.87454 z"/><path style="fill:#db2f34;fill-opacity:1;stroke:none" id="path3021" d="m 24.427332,35.162809 6.945024,10.297799 C 12.399362,62.416498 10.934918,76.019681 6.2265773,90.24404 L 0,79.467276 C 3.2831165,59.062301 13.253472,46.414525 24.427332,35.162809 z"/></g></g><text id="text2988" x="-1.589" y="127.484" xml:space="preserve" style="font-style:normal;font-variant:normal;font-weight:700;font-stretch:normal;font-size:42.27203751px;line-height:125%;font-family:Arial;-inkscape-font-specification:'Arial Bold';text-align:start;letter-spacing:0;word-spacing:0;text-anchor:start;fill:#000;fill-opacity:1;stroke:none"><tspan id="tspan2990" x="-1.589" y="127.484">111</tspan></text></svg>